<svg xmlns="http://www.w3.org/2000/svg" width="181" height="31" viewBox="0 0 181 31">
    <path fill="#1A1918" fill-rule="evenodd" d="M151.033 9.175c2.853 0 4.983 1.966 4.983 4.778v9.045h-2.477v-9.352c0-2.298-.986-3.78-3.01-3.78-1.892 0-3.386 1.657-3.386 3.447v9.685h-2.476V2.583h2.476v8.635c.427-.945 1.838-2.043 3.89-2.043zm-55.45 13.823V2.583h2.27v20.415h-2.27zM73.533 9.042c2.851 0 4.983 1.935 4.983 4.703v8.906H76.04v-9.206c0-2.264-.987-3.724-3.01-3.724-1.893 0-3.385 1.635-3.385 3.393v9.537h-2.478V9.466h2.478v1.588c.426-.932 1.838-2.012 3.888-2.012zm95.506 9.208V9.042h2.477v8.177c0 3.221-1.998 5.432-5.7 5.432-3.65 0-5.622-2.21-5.622-5.432l-.027-8.177h2.478v9.208c0 2.263 1.093 3.723 3.223 3.723 2.079 0 3.171-1.46 3.171-3.723zm-108.5 0V9.042h2.477v8.177c0 3.221-1.999 5.432-5.7 5.432-3.651 0-5.623-2.21-5.623-5.432l-.026-8.177h2.479v9.208c0 2.263 1.092 3.723 3.223 3.723 2.078 0 3.17-1.46 3.17-3.723zm45.335-9.208c2.917 0 5.469 2.07 5.469 5.512v8.543h-2.514v-1.45c-.594.828-1.918 1.76-3.539 1.76-3.053 0-4.54-1.683-4.54-3.701 0-2.978 2.054-3.493 4.839-4.296 2.268-.648 3.457-.96 3.457-2.875 0-1.552-1.065-2.742-3.146-2.742s-3.288.932-3.854 2.51l-.786-.313c.811-2.07 2.45-2.948 4.614-2.948zm2.955 10.56v-4.557c-.566.416-1.268.677-2.891 1.115-2.027.544-2.648 1.372-2.648 3.442 0 1.633.46 3.08 2.162 3.107 1.919 0 3.377-1.632 3.377-3.107zM86.88 9.042c1.003 0 1.877.16 2.615.456h3.987v.66h-2.827c1.164.908 1.77 2.318 1.787 4.052-.028 3.096-1.946 5.142-5.561 5.142-1.918.024-3.574-.05-3.574 1.254 0 .948 1.83.939 3.803 1.022 2.901.124 5.91.334 5.91 3.582 0 2.534-2.969 4.246-6.056 4.246-1.864 0-3.458-.517-4.462-1.374l.55-.545c.859.71 2.27 1.178 3.912 1.178 2.253 0 4.222-.998 4.222-2.61 0-1.92-1.291-1.982-4.019-2.175-2.437-.17-4.824-.557-4.824-2.735 0-1.129.575-2.024 1.873-2.379-1.852-.88-2.814-2.456-2.84-4.606.026-3.097 1.917-5.168 5.505-5.168zm2.987 5.83v-1.174c0-3.07-1.013-3.966-2.986-3.966-1.972 0-2.985.896-2.985 3.966v1.175c0 2.919 1.013 3.788 2.985 3.788 1.973 0 2.986-.87 2.986-3.788zm-46.213-.339c4.847.629 5.69 2.276 5.69 4.525 0 2.591-2.57 4.35-5.513 4.35-1.628 0-3.108-.517-4.235-1.567l.616-.558c.886.853 2.096 1.367 3.62 1.367 2.1 0 3.885-.95 3.885-2.597 0-1.961-1.905-2.642-4.006-2.93-2.494-.34-4.96-.967-4.96-3.872 0-2.353 1.905-4.21 4.903-4.21 3.195 0 4.989 1.752 4.989 3.009 0 .731-.675 1.36-1.486 1.36-.785 0-1.457-.629-1.457-1.36 0-.628.448-1.152 1.037-1.335-.45-.55-1.822-.94-3.11-.94-1.963 0-3.727 1.018-3.727 2.509 0 1.597 1.738 1.988 3.754 2.25zm74.919 0c4.847.629 5.687 2.276 5.687 4.525 0 2.591-2.568 4.35-5.511 4.35-1.628 0-3.108-.517-4.235-1.567l.613-.558c.89.853 2.098 1.367 3.622 1.367 2.102 0 3.887-1.099 3.887-2.75 0-1.959-1.906-2.489-4.007-2.776-2.494-.34-4.961-.968-4.961-3.873 0-2.353 1.905-4.21 4.905-4.21 3.194 0 4.989 1.752 4.989 3.009 0 .731-.671 1.36-1.486 1.36-.784 0-1.456-.629-1.456-1.36 0-.628.448-1.152 1.037-1.335-.45-.55-1.824-.94-3.112-.94-1.962 0-3.73 1.018-3.73 2.509 0 1.597 1.739 1.988 3.758 2.25zm12.915 0c4.85.629 5.69 2.276 5.69 4.525 0 2.591-2.57 4.35-5.513 4.35-1.63 0-3.11-.517-4.236-1.567l.615-.558c.89.853 2.096 1.367 3.62 1.367 2.102 0 3.887-.95 3.887-2.597 0-1.961-1.905-2.642-4.007-2.93-2.494-.34-4.96-.967-4.96-3.872 0-2.353 1.906-4.21 4.904-4.21 3.195 0 4.987 1.752 4.987 3.009 0 .731-.67 1.36-1.484 1.36-.784 0-1.456-.629-1.456-1.36 0-.628.447-1.152 1.036-1.335-.45-.55-1.823-.94-3.111-.94-1.962 0-3.728 1.018-3.728 2.509 0 1.597 1.74 1.988 3.756 2.25zm49.018 7.356l.145.656c-.414.135-.941.232-1.627.232-2.746 0-4.37-1.755-4.37-5.26V9.672h-1.57v-.67h1.57V3.875h2.434v5.127h3.24v.67h-3.24v8.669c0 2.323.524 3.69 2.513 3.69.312 0 .619-.057.905-.142zM15.51 0c8.567 0 15.512 6.939 15.512 15.5 0 8.559-6.945 15.5-15.512 15.5C6.944 31 0 24.059 0 15.5 0 6.938 6.944 0 15.51 0z"/>
</svg>
